<svg xmlns="http://www.w3.org/2000/svg" xmlns:xlink="http://www.w3.org/1999/xlink" version="1.1" width="256" height="256" viewBox="0 0 256 256" xml:space="preserve">
<g style="stroke: none; stroke-width: 0; stroke-dasharray: none; stroke-linecap: butt; stroke-linejoin: miter; stroke-miterlimit: 10; fill: none; fill-rule: nonzero; opacity: 1;" transform="translate(1.4065934065934016 1.4065934065934016) scale(2.81 2.81)">
	<path d="M 24.254 0 c -1.54 0 -2.789 1.249 -2.789 2.789 v 21.965 c 0 1.54 1.249 2.789 2.789 2.789 h 14.05 l 5.196 5.742 V 0 H 24.254 z M 38.087 22.138 H 26.878 c -0.829 0 -1.5 -0.671 -1.5 -1.5 s 0.671 -1.5 1.5 -1.5 h 11.209 c 0.829 0 1.5 0.671 1.5 1.5 S 38.916 22.138 38.087 22.138 z M 38.087 15.248 H 26.878 c -0.829 0 -1.5 -0.671 -1.5 -1.5 s 0.671 -1.5 1.5 -1.5 h 11.209 c 0.829 0 1.5 0.671 1.5 1.5 S 38.916 15.248 38.087 15.248 z M 38.087 8.357 H 26.878 c -0.829 0 -1.5 -0.671 -1.5 -1.5 s 0.671 -1.5 1.5 -1.5 h 11.209 c 0.829 0 1.5 0.671 1.5 1.5 S 38.916 8.357 38.087 8.357 z" style="stroke: none; stroke-width: 1; stroke-dasharray: none; stroke-linecap: butt; stroke-linejoin: miter; stroke-miterlimit: 10; fill: rgb(0,0,0); fill-rule: nonzero; opacity: 1;" transform=" matrix(1 0 0 1 0 0) " stroke-linecap="round"/>
	<path d="M 65.746 0 H 46.5 v 33.286 l 5.196 -5.742 h 14.05 c 1.54 0 2.789 -1.249 2.789 -2.789 V 2.789 C 68.535 1.249 67.286 0 65.746 0 z M 56.954 22.138 h -5.041 c -0.828 0 -1.5 -0.671 -1.5 -1.5 s 0.672 -1.5 1.5 -1.5 h 5.041 c 0.828 0 1.5 0.671 1.5 1.5 S 57.782 22.138 56.954 22.138 z M 63.122 22.138 h -0.88 c -0.828 0 -1.5 -0.671 -1.5 -1.5 s 0.672 -1.5 1.5 -1.5 h 0.88 c 0.828 0 1.5 0.671 1.5 1.5 S 63.95 22.138 63.122 22.138 z M 63.122 15.248 H 51.913 c -0.828 0 -1.5 -0.671 -1.5 -1.5 s 0.672 -1.5 1.5 -1.5 h 11.209 c 0.828 0 1.5 0.671 1.5 1.5 S 63.95 15.248 63.122 15.248 z M 63.122 8.357 H 51.913 c -0.828 0 -1.5 -0.671 -1.5 -1.5 s 0.672 -1.5 1.5 -1.5 h 11.209 c 0.828 0 1.5 0.671 1.5 1.5 S 63.95 8.357 63.122 8.357 z" style="stroke: none; stroke-width: 1; stroke-dasharray: none; stroke-linecap: butt; stroke-linejoin: miter; stroke-miterlimit: 10; fill: rgb(0,0,0); fill-rule: nonzero; opacity: 1;" transform=" matrix(1 0 0 1 0 0) " stroke-linecap="round"/>
	<path d="M 73.277 54.683 L 73.277 54.683 c -5.142 0 -9.31 -4.168 -9.31 -9.31 v -4.28 c 0 -5.142 4.168 -9.31 9.31 -9.31 h 0 c 5.142 0 9.31 4.168 9.31 9.31 v 4.28 C 82.587 50.515 78.419 54.683 73.277 54.683 z" style="stroke: none; stroke-width: 1; stroke-dasharray: none; stroke-linecap: butt; stroke-linejoin: miter; stroke-miterlimit: 10; fill: rgb(0,0,0); fill-rule: nonzero; opacity: 1;" transform=" matrix(1 0 0 1 0 0) " stroke-linecap="round"/>
	<path d="M 16.723 54.683 L 16.723 54.683 c -5.142 0 -9.31 -4.168 -9.31 -9.31 v -4.28 c 0 -5.142 4.168 -9.31 9.31 -9.31 h 0 c 5.142 0 9.31 4.168 9.31 9.31 v 4.28 C 26.032 50.515 21.864 54.683 16.723 54.683 z" style="stroke: none; stroke-width: 1; stroke-dasharray: none; stroke-linecap: butt; stroke-linejoin: miter; stroke-miterlimit: 10; fill: rgb(0,0,0); fill-rule: nonzero; opacity: 1;" transform=" matrix(1 0 0 1 0 0) " stroke-linecap="round"/>
	<path d="M 45 63.252 L 45 63.252 c -5.142 0 -9.31 -4.168 -9.31 -9.31 v -4.28 c 0 -5.142 4.168 -9.31 9.31 -9.31 h 0 c 5.142 0 9.31 4.168 9.31 9.31 v 4.28 C 54.31 59.084 50.142 63.252 45 63.252 z" style="stroke: none; stroke-width: 1; stroke-dasharray: none; stroke-linecap: butt; stroke-linejoin: miter; stroke-miterlimit: 10; fill: rgb(0,0,0); fill-rule: nonzero; opacity: 1;" transform=" matrix(1 0 0 1 0 0) " stroke-linecap="round"/>
	<path d="M 45 90 l 16.48 -8.03 v -2.239 c 0 -9.101 -7.378 -16.48 -16.48 -16.48 s -16.48 7.378 -16.48 16.48 v 2.239 L 45 90 z" style="stroke: none; stroke-width: 1; stroke-dasharray: none; stroke-linecap: butt; stroke-linejoin: miter; stroke-miterlimit: 10; fill: rgb(0,0,0); fill-rule: nonzero; opacity: 1;" transform=" matrix(1 0 0 1 0 0) " stroke-linecap="round"/>
	<path d="M 65.479 79.731 v 0.29 L 89.495 68.32 c -1.349 -7.744 -8.088 -13.637 -16.218 -13.637 c -6.621 0 -12.314 3.914 -14.934 9.546 C 62.704 67.987 65.479 73.537 65.479 79.731 z" style="stroke: none; stroke-width: 1; stroke-dasharray: none; stroke-linecap: butt; stroke-linejoin: miter; stroke-miterlimit: 10; fill: rgb(0,0,0); fill-rule: nonzero; opacity: 1;" transform=" matrix(1 0 0 1 0 0) " stroke-linecap="round"/>
	<path d="M 24.521 79.731 c 0 -6.195 2.776 -11.744 7.136 -15.503 c -2.62 -5.632 -8.313 -9.546 -14.934 -9.546 c -8.13 0 -14.868 5.893 -16.218 13.637 l 24.016 11.702 V 79.731 z" style="stroke: none; stroke-width: 1; stroke-dasharray: none; stroke-linecap: butt; stroke-linejoin: miter; stroke-miterlimit: 10; fill: rgb(0,0,0); fill-rule: nonzero; opacity: 1;" transform=" matrix(1 0 0 1 0 0) " stroke-linecap="round"/>
</g>
</svg>